HIERARCHY
ROOT Hips
{
	OFFSET 0.000000 0.000000 0.000000 
	CHANNELS 6 Xposition Yposition Zposition Zrotation Yrotation Xrotation
	JOINT LeftUpLeg
	{
		OFFSET 1.363060 -1.794630 0.839290 
		CHANNELS 3 Zrotation Yrotation Xrotation
		JOINT LeftLeg
		{
			OFFSET 2.448110 -6.726130 0.000000 
			CHANNELS 3 Zrotation Yrotation Xrotation
			JOINT LeftFoot
			{
				OFFSET 2.562200 -7.039590 0.000000 
				CHANNELS 3 Zrotation Yrotation Xrotation
				JOINT LeftToeBase
				{
					OFFSET 0.157640 -0.433110 2.322550 
					CHANNELS 3 Zrotation Yrotation Xrotation
					End Site
					{
						OFFSET 0.000000 0.000000 0.000000 
					}
				}
			}
		}
	}
	JOINT RightUpLeg
	{
		OFFSET -1.305520 -1.794630 0.839290 
		CHANNELS 3 Zrotation Yrotation Xrotation
		JOINT RightLeg
		{
			OFFSET -2.542530 -6.985550 0.000000 
			CHANNELS 3 Zrotation Yrotation Xrotation
			JOINT RightFoot
			{
				OFFSET -2.568260 -7.056230 0.000000 
				CHANNELS 3 Zrotation Yrotation Xrotation
				JOINT RightToeBase
				{
					OFFSET -0.164730 -0.452590 2.363150 
					CHANNELS 3 Zrotation Yrotation Xrotation
					End Site
					{
						OFFSET 0.000000 0.000000 0.000000 
					}
				}
			}
		}
	}
	JOINT Spine
	{
		OFFSET 0.028270 2.035590 -0.193380 
		CHANNELS 3 Zrotation Yrotation Xrotation
		JOINT Spine1
		{
			OFFSET 0.056720 2.048850 -0.042750 
			CHANNELS 3 Zrotation Yrotation Xrotation
			JOINT Neck1
			{
				OFFSET -0.054170 1.746240 0.172020 
				CHANNELS 3 Zrotation Yrotation Xrotation
				JOINT Head
				{
					OFFSET 0.104070 1.761360 -0.123970 
					CHANNELS 3 Zrotation Yrotation Xrotation
					End Site
					{
						OFFSET 0.000000 0.000000 0.000000 
					}
				}
			}
			JOINT LeftArm
			{
				OFFSET 3.362410 1.200890 -0.311210 
				CHANNELS 3 Zrotation Yrotation Xrotation
				JOINT LeftForeArm
				{
					OFFSET 4.983000 -0.000000 -0.000000 
					CHANNELS 3 Zrotation Yrotation Xrotation
					JOINT LeftHand
					{
						OFFSET 3.483560 -0.000000 -0.000000 
						CHANNELS 3 Zrotation Yrotation Xrotation
						JOINT LeftHandIndex1
						{
							OFFSET 0.715260 -0.000000 -0.000000 
							CHANNELS 3 Zrotation Yrotation Xrotation
							End Site
							{
								OFFSET 0.000000 0.000000 0.000000 
							}
						}
					}
				}
			}
			JOINT RightArm
			{
				OFFSET -3.136600 1.374050 -0.404650 
				CHANNELS 3 Zrotation Yrotation Xrotation
				JOINT RightForeArm
				{
					OFFSET -5.241900 -0.000000 -0.000000 
					CHANNELS 3 Zrotation Yrotation Xrotation
					JOINT RightHand
					{
						OFFSET -3.444170 -0.000000 -0.000000 
						CHANNELS 3 Zrotation Yrotation Xrotation
						JOINT RightHandIndex1
						{
							OFFSET -0.622530 -0.000000 -0.000000 
							CHANNELS 3 Zrotation Yrotation Xrotation
							End Site
							{
								OFFSET 0.000000 0.000000 0.000000 
							}
						}
					}
				}
			}
		}
	}
}
MOTION
Frames: 17
Frame Time: 0.041667
40.491141 17.767243 6.813252 -125.631820 -83.502729 135.944045 -9.228152 -5.128854 -7.130800 -0.447511 4.443073 10.892662 -0.608561 5.273525 0.526486 0.013300 0.745600 2.049000 25.093329 7.414385 -7.365579 -0.077110 -5.487941 13.778835 2.037578 -12.992516 -3.994615 -0.347500 -3.787500 10.479500 1.898323 -2.368437 -4.684138 6.366269 -1.473938 2.717872 8.210798 -7.148215 4.967809 3.623900 -3.245200 6.779300 -93.970869 3.501805 -17.749738 2.965257 -16.913426 -1.326461 3.027067 1.713788 44.976805 -7.125000 0.000000 0.000000 82.375909 -3.804847 -21.439382 -7.297454 17.033116 -1.180996 -0.646186 0.244140 13.618069 7.125000 0.000000 0.000000 
40.483546 17.766843 6.815750 -124.543752 -83.581560 134.843657 -9.209529 -5.214291 -7.064883 -0.452118 4.417162 10.833182 -0.589707 5.185539 0.574045 0.013300 0.743500 2.043200 25.119100 7.504306 -7.358605 -0.085691 -5.527176 13.889094 2.073333 -13.155192 -4.211637 -0.351600 -3.809700 10.541800 1.932035 -2.360077 -4.778859 6.505070 -1.473926 2.325615 8.057171 -6.998950 5.124477 3.572500 -3.186100 6.827100 -94.074714 4.129239 -17.459997 3.147410 -17.260616 -1.373528 3.030483 1.833114 44.081946 -7.125000 0.000000 0.000000 82.231373 -4.410323 -22.243852 -7.349832 17.109253 -1.204152 -0.643722 0.233129 13.429802 7.125000 0.000000 0.000000 
40.477849 17.766044 6.818649 -124.513982 -83.626783 134.824022 -9.254988 -5.257229 -7.022776 -0.460196 4.376578 10.728499 -0.576433 5.121034 0.571746 0.013300 0.743700 2.043800 25.046600 7.492726 -7.436400 -0.094404 -5.558524 13.988662 2.069136 -13.123787 -4.303919 -0.361200 -3.860800 10.685400 1.879914 -2.262127 -4.943519 6.298829 -1.428434 1.700389 8.102808 -6.994033 5.197606 3.612600 -3.196600 6.783000 -93.948413 4.935527 -17.307990 3.276195 -17.412702 -1.394478 3.006525 1.844060 43.643128 -7.125000 0.000000 0.000000 82.333089 -5.330214 -22.889358 -7.429330 17.252052 -1.235947 -0.642818 0.223734 13.276711 7.125000 0.000000 0.000000 
40.475151 17.764445 6.822646 -124.380892 -83.637195 134.720394 -9.256877 -5.283752 -7.020805 -0.464164 4.355008 10.674791 -0.570829 5.094714 0.597395 0.013700 0.755100 2.075300 25.010423 7.461083 -7.553672 -0.104341 -5.597100 14.102103 2.061875 -13.082799 -4.339936 -0.353600 -3.820500 10.572300 1.902065 -2.271520 -5.026382 6.356822 -1.433531 1.377331 7.859632 -6.842099 5.113682 3.488800 -3.142400 6.671400 -94.106564 5.419507 -17.612931 3.380983 -17.554147 -1.419792 3.000512 1.878648 43.503477 -7.125000 0.000000 0.000000 82.221003 -5.859119 -23.382229 -7.474144 17.325952 -1.254479 -0.641997 0.216398 13.127174 7.125000 0.000000 0.000000 
40.470953 17.763146 6.824245 -124.316967 -83.642460 134.692562 -9.248825 -5.268320 -6.995055 -0.471416 4.317318 10.571716 -0.561360 5.056593 0.658956 0.014700 0.782900 2.151700 24.984913 7.436886 -7.646348 -0.112292 -5.631310 14.199327 2.050762 -13.024809 -4.415204 -0.365800 -3.884900 10.753000 1.927037 -2.298708 -5.009685 6.483471 -1.449193 1.442751 7.939815 -6.741914 5.254549 3.563800 -3.090100 6.752300 -94.288477 5.522141 -18.030038 3.401750 -17.570282 -1.427583 3.013724 1.872610 43.456857 -7.125000 0.000000 0.000000 82.147935 -5.984491 -24.099864 -7.473157 17.316439 -1.260257 -0.639858 0.207688 13.099476 7.125000 0.000000 0.000000 
40.467155 17.761546 6.825544 -124.250428 -83.697837 134.660233 -9.278060 -5.266484 -6.965817 -0.480409 4.272098 10.449558 -0.545627 4.988280 0.715127 0.013600 0.751700 2.065900 24.921257 7.388688 -7.751380 -0.120008 -5.664256 14.293649 2.040604 -12.970411 -4.486038 -0.365300 -3.882700 10.746900 2.003334 -2.449766 -5.001464 6.787726 -1.522727 1.504704 7.789965 -6.435506 5.176906 3.542100 -2.960700 6.644800 -94.668494 5.674850 -18.868437 3.371502 -17.545785 -1.440808 3.160157 1.946529 43.672434 -7.125000 0.000000 0.000000 81.873692 -6.133231 -24.507856 -7.463320 17.293466 -1.263491 -0.637406 0.197347 12.984918 7.125000 0.000000 0.000000 
40.464857 17.760247 6.828643 -124.104823 -83.776274 134.549283 -9.346390 -5.321265 -6.915426 -0.489415 4.231601 10.335848 -0.537043 4.953429 0.748135 0.013200 0.740600 2.035400 24.826938 7.264024 -7.893931 -0.131297 -5.709862 14.422532 2.020281 -12.868341 -4.492469 -0.358300 -3.845700 10.642900 2.035865 -2.513684 -4.950849 6.956692 -1.555296 1.683921 7.667684 -6.286878 5.176873 3.489100 -2.890100 6.655500 -94.904986 5.579946 -19.283945 3.330818 -17.497830 -1.439775 3.209310 1.945712 43.757496 -7.125000 0.000000 0.000000 81.772422 -6.034456 -25.226899 -7.427748 17.212515 -1.255483 -0.635411 0.187424 12.880594 7.125000 0.000000 0.000000 
40.464357 17.759748 6.828643 -123.690932 -83.823203 134.118542 -9.335306 -5.360734 -6.873524 -0.494433 4.198314 10.258404 -0.522220 4.880823 0.781833 0.011600 0.694800 1.909300 24.789724 7.227489 -8.016541 -0.144905 -5.758064 14.569619 2.018130 -12.847799 -4.583809 -0.355700 -3.831600 10.603500 2.048606 -2.485122 -5.160151 7.042359 -1.536837 0.866136 7.685058 -6.204483 5.247219 3.534500 -2.871800 6.586100 -95.081257 6.232773 -20.126232 3.298875 -17.336788 -1.431130 3.231973 1.884720 44.406435 -7.125000 0.000000 0.000000 81.692489 -6.996708 -25.308428 -7.504129 17.343553 -1.281203 -0.635556 0.175453 12.207669 7.125000 0.000000 0.000000 
40.462758 17.759048 6.829742 -123.317176 -83.883902 133.764845 -9.356201 -5.385295 -6.795937 -0.505036 4.144665 10.110923 -0.503617 4.801565 0.850938 0.011800 0.700600 1.925400 24.744525 7.166407 -8.114089 -0.154554 -5.799336 14.683713 2.012655 -12.818552 -4.658066 -0.359800 -3.853500 10.664900 2.048652 -2.544141 -5.105846 7.059883 -1.566745 1.070006 7.677956 -6.073807 5.153288 3.542500 -2.807500 6.524800 -95.282723 5.905389 -21.649723 3.138636 -16.911591 -1.391242 3.285115 1.779394 45.686089 -7.125000 0.000000 0.000000 81.720961 -6.944236 -25.894052 -7.456901 17.256323 -1.276797 -0.628497 0.164126 12.054747 7.125000 0.000000 0.000000 
40.462758 17.758448 6.829642 -123.089318 -83.935707 133.560167 -9.371618 -5.428723 -6.714729 -0.515051 4.092609 9.966187 -0.495549 4.770264 0.896493 0.014800 0.785800 2.159500 24.698807 7.115892 -8.213061 -0.163290 -5.835936 14.785671 2.008980 -12.798130 -4.718522 -0.349800 -3.800200 10.515200 2.025939 -2.532249 -5.066341 7.004271 -1.562967 1.198837 7.669272 -6.026950 5.089654 3.524600 -2.779600 6.497100 -95.312289 5.777265 -21.741481 3.060038 -16.787684 -1.374310 3.311055 1.745478 45.794094 -7.125000 0.000000 0.000000 81.892126 -6.926532 -26.223599 -7.484454 17.300013 -1.273413 -0.639688 0.158358 11.698910 7.125000 0.000000 0.000000 
40.462558 17.757249 6.830042 -122.938599 -84.022957 133.438012 -9.426167 -5.474289 -6.663876 -0.524247 4.048212 9.843325 -0.481042 4.707384 0.939568 0.017100 0.844200 2.320100 24.603729 7.030555 -8.362322 -0.176617 -5.888974 14.937077 2.000452 -12.750574 -4.822968 -0.351500 -3.809300 10.540600 2.004755 -2.524059 -5.042656 6.994381 -1.557903 1.268912 7.574380 -5.939599 5.110512 3.475200 -2.736200 6.515200 -95.440816 5.405313 -23.244106 2.852062 -16.256332 -1.321340 3.377112 1.603842 47.308098 -7.125000 0.000000 0.000000 82.035024 -6.915168 -26.683810 -7.478728 17.281516 -1.272523 -0.639031 0.153178 11.542786 7.125000 0.000000 0.000000 
40.463957 17.756150 6.830541 -123.273744 -84.078055 133.802308 -9.497571 -5.487280 -6.616236 -0.532583 4.007632 9.726090 -0.475127 4.686557 0.975580 0.018300 0.873500 2.400900 24.515036 6.993591 -8.484214 -0.188216 -5.934744 15.067121 1.997249 -12.731494 -4.888620 -0.349900 -3.800600 10.516300 1.964551 -2.431043 -4.986165 6.944381 -1.511534 1.417299 7.492853 -5.942460 5.147502 3.402400 -2.724800 6.607800 -95.475862 4.910460 -23.956223 2.666344 -15.860988 -1.277359 3.438469 1.523367 48.278870 -7.125000 0.000000 0.000000 82.262320 -6.719007 -27.141124 -7.486524 17.278805 -1.269803 -0.641778 0.148363 11.386486 7.125000 0.000000 0.000000 
40.464557 17.756050 6.830741 -123.915172 -84.177291 134.504101 -9.620866 -5.525413 -6.593800 -0.542507 3.964711 9.598382 -0.470446 4.675383 1.030307 0.019100 0.891700 2.450800 24.358222 6.991790 -8.634432 -0.201280 -5.984710 15.209910 1.996778 -12.723944 -4.936930 -0.347400 -3.787300 10.479000 1.916635 -2.379565 -4.919200 6.870216 -1.486024 1.664885 7.489720 -5.932221 5.105222 3.380900 -2.708300 6.633400 -95.512271 4.419740 -24.757677 2.488233 -15.458097 -1.233535 3.497001 1.438438 49.271684 -7.125000 0.000000 0.000000 82.508056 -6.525452 -27.495903 -7.494976 17.287072 -1.272249 -0.642215 0.138299 11.259811 7.125000 0.000000 0.000000 
40.466656 17.753251 6.831141 -124.049868 -84.222664 134.628035 -9.665424 -5.530644 -6.515035 -0.550145 3.921915 9.481181 -0.457867 4.617563 1.039480 0.019700 0.906000 2.490300 24.305120 6.952552 -8.758034 -0.219271 -6.052789 15.405237 1.993156 -12.701257 -5.053195 -0.348200 -3.791400 10.490600 1.902381 -2.369154 -4.919065 6.867642 -1.478763 1.624477 7.500497 -5.864714 5.082309 3.402000 -2.677600 6.606600 -95.666966 4.144201 -25.926476 2.288090 -14.964800 -1.183764 3.557503 1.297762 50.545927 -7.125000 0.000000 0.000000 82.620410 -6.560850 -27.724748 -7.483740 17.260649 -1.268448 -0.641749 0.132849 11.213198 7.125000 0.000000 0.000000 
40.468754 17.751852 6.830741 -124.276702 -84.288122 134.889161 -9.722121 -5.510314 -6.487803 -0.559149 3.875091 9.347438 -0.446472 4.576015 1.130584 0.021000 0.935700 2.571900 24.230680 6.973187 -8.900180 -0.239317 -6.130805 15.625233 1.997935 -12.720400 -5.218475 -0.348300 -3.791800 10.491600 1.866166 -2.331647 -4.847774 6.807340 -1.458664 1.869720 7.450028 -5.853528 5.018178 3.361000 -2.664800 6.614600 -95.764219 3.513380 -27.524930 2.052635 -14.296406 -1.116744 3.581337 1.068024 52.588415 -7.125000 0.000000 0.000000 82.847453 -6.246088 -28.238178 -7.441231 17.169909 -1.253639 -0.641239 0.127643 11.459483 7.125000 0.000000 0.000000 
40.472752 17.749953 6.830741 -125.429726 -84.332261 136.100402 -9.835773 -5.511575 -6.479903 -0.566570 3.843968 9.247579 -0.448577 4.593750 1.136911 0.019900 0.910500 2.502500 24.100109 7.008203 -9.101718 -0.263716 -6.222130 15.885416 1.987996 -12.667841 -5.325565 -0.357000 -3.838500 10.622700 1.817191 -2.344103 -4.726825 6.657995 -1.464406 2.364634 7.530050 -5.763685 4.780100 3.407100 -2.615800 6.475000 -95.833351 2.950505 -28.234805 1.910052 -13.940329 -1.078268 3.603736 0.983894 53.516439 -7.125000 0.000000 0.000000 83.074372 -5.792733 -28.903995 -7.320878 16.949420 -1.228296 -0.630664 0.116198 12.047390 7.125000 0.000000 0.000000 
40.476750 17.747455 6.829842 -126.153180 -84.371151 136.869216 -9.887429 -5.476039 -6.509723 -0.573247 3.808357 9.147656 -0.438583 4.556325 1.225851 0.021700 0.951100 2.614400 24.008685 7.075990 -9.313879 -0.291983 -6.322742 16.177310 1.987680 -12.660320 -5.488009 -0.352000 -3.811700 10.547600 1.802200 -2.312048 -4.745550 6.679253 -1.443870 2.278653 7.508156 -5.668214 4.734719 3.414600 -2.573000 6.444600 -96.025849 2.622289 -29.600312 1.746836 -13.427776 -1.031780 3.640981 0.808329 55.226559 -7.125000 0.000000 0.000000 83.180780 -5.778051 -28.637182 -7.338039 16.970185 -1.215184 -0.643674 0.106683 11.704168 7.125000 0.000000 0.000000 
